{"asset":{"generator":"FBX2glTF v0.9.6","version":"2.0"},"scene":0,"buffers":[{"byteLength":5232,"uri":"data:application/octet-stream;base64,"}],"bufferViews":[{"buffer":0,"byteLength":144,"byteOffset":0,"target":34963},{"buffer":0,"byteLength":468,"byteOffset":144,"target":34962},{"buffer":0,"byteLength":468,"byteOffset":612,"target":34962},{"buffer":0,"byteLength":312,"byteOffset":1080,"target":34962},{"buffer":0,"byteLength":576,"byteOffset":1392,"target":34963},{"buffer":0,"byteLength":1224,"byteOffset":1968,"target":34962},{"buffer":0,"byteLength":1224,"byteOffset":3192,"target":34962},{"buffer":0,"byteLength":816,"byteOffset":4416,"target":34962}],"scenes":[{"name":"Root Scene","nodes":[0]}],"accessors":[{"componentType":5123,"type":"SCALAR","count":72,"bufferView":0,"byteOffset":0},{"componentType":5126,"type":"VEC3","count":39,"bufferView":1,"byteOffset":0,"min":[-0.00499999988824129,-0.00499999988824129,-0.00499999988824129],"max":[0.00499999988824129,0.00499999988824129,0.00499999988824129]},{"componentType":5126,"type":"VEC3","count":39,"bufferView":2,"byteOffset":0},{"componentType":5126,"type":"VEC2","count":39,"bufferView":3,"byteOffset":0},{"componentType":5123,"type":"SCALAR","count":288,"bufferView":4,"byteOffset":0},{"componentType":5126,"type":"VEC3","count":102,"bufferView":5,"byteOffset":0,"min":[-0.00499999988824129,-0.00499999988824129,-0.00499999988824129],"max":[0.00499999988824129,0.00499999988824129,0.00499999988824129]},{"componentType":5126,"type":"VEC3","count":102,"bufferView":6,"byteOffset":0},{"componentType":5126,"type":"VEC2","count":102,"bufferView":7,"byteOffset":0}],"meshes":[{"name":"Cone","primitives":[{"material":0,"mode":4,"attributes":{"NORMAL":2,"POSITION":1,"TEXCOORD_0":3},"indices":0,"extras":{"objectid":2}}]},{"name":"Cylinder","primitives":[{"material":0,"mode":4,"attributes":{"NORMAL":6,"POSITION":5,"TEXCOORD_0":7},"indices":4,"extras":{"objectid":3}}]}],"nodes":[{"name":"Arrow","translation":[0.0,0.0,0.0],"rotation":[0.0,0.0,0.0,1.0],"scale":[1.0,1.0,1.0],"children":[1,2],"extras":{"objectid":1}},{"name":"Cone","translation":[0.0,0.623199999332428,0.0],"rotation":[0.0,0.0,0.0,1.0],"scale":[37.7000007629395,37.7000007629395,37.7000007629395],"mesh":0,"extras":{"objectid":2}},{"name":"Cylinder","translation":[0.0,0.0,0.0],"rotation":[0.0,0.0,0.0,1.0],"scale":[12.8199996948242,100.0,12.1000003814697],"mesh":1,"extras":{"objectid":3}}]}